<?xml version="1.0" encoding="utf-8"?>
<!-- Generator: Adobe Illustrator 16.0.0, SVG Export Plug-In . SVG Version: 6.00 Build 0)  -->
<!DOCTYPE svg PUBLIC "-//W3C//DTD SVG 1.1//EN" "http://www.w3.org/Graphics/SVG/1.1/DTD/svg11.dtd">
<svg version="1.1" id="Layer_1" xmlns="http://www.w3.org/2000/svg" xmlns:xlink="http://www.w3.org/1999/xlink" x="0px" y="0px"
	 width="792px" height="1224px" viewBox="0 0 792 1224" enable-background="new 0 0 792 1224" xml:space="preserve">
<g id="Layer_1_1_">
	<path d="M182.678,413.235c9.521,7.695,18.475,14.928,27.428,22.171c5.164,4.188,78.778,57.303,83.771,61.675
		c3.362,2.953,3.648,7.193,1.268,10.578c-2.434,3.458-7.102,4.562-10.941,2.436c-1.356-0.756-2.543-1.815-3.754-2.797
		c-12.019-9.695-92.364-68.464-104.376-78.173c-3.493-2.825-7.049-5.58-10.471-8.49c-5.446-4.63-5.553-10.408-0.068-14.89
		c16.049-13.11,100.617-75.047,116.723-88.083c2.597-2.105,5.415-3.042,8.716-1.974c5.563,1.793,7.555,8.241,3.825,12.749
		c-1.105,1.335-2.564,2.395-3.927,3.496c-11.238,9.109-90.916,67.147-102.157,76.248
		C186.901,409.65,185.143,411.168,182.678,413.235z"/>
	<path d="M630.75,413.191c-9.521-7.696-18.475-14.928-27.428-22.171c-5.164-4.188-78.777-57.303-83.771-61.675
		c-3.36-2.953-3.647-7.193-1.268-10.576c2.434-3.459,7.102-4.563,10.94-2.437c1.357,0.756,2.545,1.816,3.757,2.797
		c12.02,9.695,92.362,68.465,104.375,78.173c3.491,2.825,7.049,5.58,10.471,8.49c5.447,4.63,5.553,10.408,0.067,14.89
		c-16.049,13.11-100.618,75.047-116.723,88.083c-2.596,2.106-5.414,3.042-8.717,1.976c-5.562-1.793-7.555-8.241-3.824-12.75
		c1.104-1.335,2.562-2.395,3.926-3.496c11.24-9.108,90.916-67.147,102.158-76.248C626.527,416.776,628.285,415.257,630.75,413.191z"
		/>
	
		<rect x="165.007" y="402.017" transform="matrix(0.4603 -0.8878 0.8878 0.4603 -143.0952 586.8979)" display="none" width="492.273" height="18.239"/>
	<polygon points="495.667,235.913 344.207,594.021 330.046,586.771 481.573,228.502 	"/>
</g>
<g id="Layer_2" display="none">
	
		<rect x="275.596" y="296.606" display="inline" fill="none" stroke="#000000" stroke-miterlimit="10" width="246.695" height="422.436"/>
	
		<rect x="523.539" y="403.324" display="inline" fill="none" stroke="#000000" stroke-miterlimit="10" width="149.135" height="219.688"/>
	
		<rect x="126.462" y="403.324" display="inline" fill="none" stroke="#000000" stroke-miterlimit="10" width="149.134" height="219.688"/>
</g>
</svg>
