<?xml version="1.0" encoding="utf-8"?>
<!-- Generator: Adobe Illustrator 16.0.0, SVG Export Plug-In . SVG Version: 6.00 Build 0)  -->
<!DOCTYPE svg PUBLIC "-//W3C//DTD SVG 1.1//EN" "http://www.w3.org/Graphics/SVG/1.1/DTD/svg11.dtd">
<svg version="1.1" id="Layer_1" xmlns="http://www.w3.org/2000/svg" xmlns:xlink="http://www.w3.org/1999/xlink" x="0px" y="0px"
	 width="792px" height="1224px" viewBox="0 0 792 1224" enable-background="new 0 0 792 1224" xml:space="preserve">
<g display="none">
	<path display="inline" d="M336.6,602.3c-51.479,0-94.05-42.569-94.05-94.05s42.57-94.05,94.05-94.05
		c51.48,0,94.056,42.569,94.056,94.05S388.08,602.3,336.6,602.3z M336.6,428.333c-43.87,0-80.25,36.229-80.25,79.917
		s36.379,79.917,80.25,79.917c43.871,0,80.25-36.229,80.25-79.917S380.471,428.333,336.6,428.333z"/>
</g>
<g>
	<path d="M510.344,571.14l-316.572,0.118c-18.734,0-30.5-14.29-30.5-32.976V285.48c0-21.647,9.062-33.09,30.5-32.974l316.572-0.116
		c9.823,0,29.722,3.912,29.722,26.609v259.165C540.065,561.833,530.502,571.258,510.344,571.14z M192.717,271.159
		c-6.648,0-11.079,4.503-11.079,11.259v258.93c0,6.756,4.431,11.261,11.079,11.261l318.678-0.116c6.648,0,11.08-4.504,11.08-11.26
		V282.302c0-6.755-4.432-11.259-11.08-11.259L192.717,271.159z"/>
</g>
<g>
	<path d="M646.671,519.901c-4.167,0-8.338-1.662-12.507-4.157L529.11,455.224l10.005-13.305l109.224,60.52
		c1.667,1.662-0.835,0.833,0,0c0.831,0,0,2.494,0,0V320.315c0-2.495,0.831,0.833,0,0c-0.835,0,1.667-0.831,0,0l-109.224,60.521
		l-10.005-13.302l105.054-59.688c6.673-4.991,15.008-4.991,21.678-1.664c7.504,3.325,8.892,9.976,8.892,18.295v174.639
		c0,8.314-1.388,14.968-8.892,18.295C653.342,519.072,650.009,519.901,646.671,519.901z"/>
</g>
<g display="none">
	<path display="inline" d="M137.994,394.305c-4.499,0-8.181,3.887-8.181,8.635v269.831c0,4.738,3.682,8.634,8.181,8.634h397.215
		c4.506,0,8.178-3.896,8.178-8.634V402.946c0-4.754-3.672-8.635-8.178-8.635H137.994V394.305z M529.016,657.582
		c0,4.744-3.688,8.641-8.188,8.641H152.38c-4.509,0-8.187-3.896-8.187-8.641V418.129c0-4.754,3.682-8.635,8.187-8.635h368.444
		c4.498,0,8.188,3.887,8.188,8.635L529.016,657.582L529.016,657.582z"/>
</g>
</svg>
