<?xml version="1.0" encoding="utf-8"?>
<!-- Generator: Adobe Illustrator 16.0.0, SVG Export Plug-In . SVG Version: 6.00 Build 0)  -->
<!DOCTYPE svg PUBLIC "-//W3C//DTD SVG 1.1//EN" "http://www.w3.org/Graphics/SVG/1.1/DTD/svg11.dtd">
<svg version="1.1" id="Layer_1" xmlns="http://www.w3.org/2000/svg" xmlns:xlink="http://www.w3.org/1999/xlink" x="0px" y="0px"
	 width="792px" height="1224px" viewBox="0 0 792 1224" enable-background="new 0 0 792 1224" xml:space="preserve">
<g>
	<path d="M175.075,261.671c-4.999,0-9.09,4.091-9.09,9.092l-0.183,280.567c0,4.995,4.091,9.092,9.09,9.092h441.399
		c5.007,0,9.087-4.097,9.087-9.092l0.183-280.562c0-5.005-4.078-9.091-9.087-9.091H175.075V261.671z M606.738,533.784
		c0,4.931-4.052,8.984-8.99,8.984H193.438c-4.948,0-8.983-4.052-8.983-8.984l0.181-245.478c0-4.942,4.041-8.977,8.983-8.977h404.312
		c4.937,0,8.986,4.04,8.986,8.977l-0.181,245.478H606.738z"/>
</g>
<rect x="141.847" y="228.617" width="507.485" height="14.652"/>
<g>
	<path d="M333.02,663.714c4.829,0,11.112-3.371,13.955-7.473l43.565-62.851c2.85-4.107,7.515-4.107,10.369,0l43.659,62.851
		c2.85,4.107,9.131,7.473,13.96,7.473c4.823,0,6.44-3.371,3.6-7.473l-51.889-74.698c-2.855-4.113-9.273-7.468-14.279-7.468h-0.459
		c-5,0-11.426,3.358-14.274,7.468l-51.801,74.698C326.572,660.343,328.189,663.714,333.02,663.714z"/>
</g>
</svg>
